# xmcd
#
# Track frame offsets:
#	182
#	21642
#	37310
#	50925
#	69795
#	88940
#	103112
#	116817
#	137625
#	157197
#	177257
#	196642
#	216512
#	232257
#
# Disc length: 3349
#
# Revision: 2
# Processed by: cddbd v1.5.1PL0 Copyright (c) Steve Scherf et al.
# Submitted via: CDex 1.50beta9
# Normalized: r1:TDELIM( - )
#
DISCID=de0d130e
DTITLE=Irish Collection - Classic Ballads
DYEAR=1900
DGENRE=Country
TTITLE0=Jim McCann - Grace
TTITLE1=Daniel O'Donnell - My Donegal Shore
TTITLE2=The Fureys and Davey Arthur - I'll Take You Home Kathleen
TTITLE3=Irish Mist - Mountains Of Mourne
TTITLE4=Foster and Allen - Rose Of Allendale
TTITLE5=Bryan Murray - Those Endearing Young Charme
TTITLE6=Joe Lynch - Molly Malone
TTITLE7=The Fureys and Davey Arthur - Tara Hill
TTITLE8=The Morriseys - The Old Rustic Bridge
TTITLE9=Brendan Grace - Song For Mira
TTITLE10=Dennis Allen - Limerick You're A Lady
TTITLE11=Joe Dolan - Sometimes When We Touch
TTITLE12=Lee Lynch - Galway Bay
TTITLE13=Ralph McTell - From Clare To Here
EXTD=
EXTT0=
EXTT1=
EXTT2=
EXTT3=
EXTT4=
EXTT5=
EXTT6=
EXTT7=
EXTT8=
EXTT9=
EXTT10=
EXTT11=
EXTT12=
EXTT13=
PLAYORDER=
